<?xml version="1.0" encoding="UTF-8" standalone="no"?>
<!-- Created with Inkscape (http://www.inkscape.org/) -->

<svg
   width="1000"
   height="1000"
   viewBox="0 0 1000 1000"
   version="1.1"
   id="svg1"
   inkscape:version="1.4.4 (dcaf3e7d9e, 2026-05-05)"
   sodipodi:docname="cumulus-community-lettermark.svg"
   inkscape:export-filename="cumulus-community-lettermark.png"
   inkscape:export-xdpi="150"
   inkscape:export-ydpi="150"
   xmlns:inkscape="http://www.inkscape.org/namespaces/inkscape"
   xmlns:sodipodi="http://sodipodi.sourceforge.net/DTD/sodipodi-0.dtd"
   xmlns="http://www.w3.org/2000/svg"
   xmlns:svg="http://www.w3.org/2000/svg">
  <sodipodi:namedview
     id="namedview1"
     pagecolor="#ffffff"
     bordercolor="#000000"
     borderopacity="0.25"
     inkscape:showpageshadow="2"
     inkscape:pageopacity="0.0"
     inkscape:pagecheckerboard="true"
     inkscape:deskcolor="#d1d1d1"
     inkscape:document-units="px"
     inkscape:clip-to-page="true"
     showguides="false"
     inkscape:zoom="0.35355339"
     inkscape:cx="127.27922"
     inkscape:cy="738.21948"
     inkscape:window-width="2256"
     inkscape:window-height="1214"
     inkscape:window-x="0"
     inkscape:window-y="0"
     inkscape:window-maximized="1"
     inkscape:current-layer="layer1">
    <sodipodi:guide
       position="289.78809,777.44727"
       orientation="1,0"
       id="guide6"
       inkscape:locked="false" />
    <sodipodi:guide
       position="279.73828,889.91992"
       orientation="1,0"
       id="guide7"
       inkscape:locked="false" />
    <sodipodi:guide
       position="196.61328,950.35059"
       orientation="1,0"
       id="guide8"
       inkscape:locked="false" />
    <sodipodi:guide
       position="231.70019,956.95605"
       orientation="0,-1"
       id="guide9"
       inkscape:locked="false" />
  </sodipodi:namedview>
  <defs
     id="defs1" />
  <g
     inkscape:groupmode="layer"
     id="layer3"
     inkscape:label="Background">
    <circle
       style="fill:#705f80;fill-opacity:0.77891481;stroke:none;stroke-width:1.94993;stroke-dasharray:none"
       id="path9"
       cx="501.26349"
       cy="500.67767"
       r="498.64224" />
  </g>
  <g
     inkscape:label="C"
     inkscape:groupmode="layer"
     id="layer1">
    <path
       style="fill:#eeff53;fill-opacity:0.92731661;stroke:none;stroke-width:1.28332;stroke-dasharray:none"
       d="m 680.45632,316.35874 c 38.67339,11.65372 33.33916,20.86937 69.1149,24.57229 32.13312,3.3259 102.09684,0.0591 85.5629,-37.2283 -13.81027,-31.14503 -94.50047,-59.77632 -136.67638,-56.45137 -32.35066,2.55035 -70.76125,7.76033 -89.10079,42.15202 -20.48755,38.41985 10.94498,47.55706 29.26896,56.15694 112.98247,53.02534 176.03525,38.73569 230.94796,14.86367 58.28988,-25.34017 6.219,-124.54509 -53.78735,-162.96659 C 605.23796,62.645128 360.82611,95.841297 282.6728,121.95705 121.8323,175.7036 64.230897,323.50645 62.434733,471.14566 60.339949,643.33102 197.09696,831.40817 538.69464,856.90971 c 248.49983,18.55144 276.54058,1.75475 338.6332,-62.83246 22.31517,-23.21168 -52.75902,-14.88608 -10.25983,-32.98945 25.4259,-5.76571 20.71807,-20.25103 -3.65778,-19.34265 -74.31159,2.76928 -216.27199,-53.63931 -265.0239,2.28457 -43.48221,49.87894 136.23394,14.32084 171.18402,32.75748 C 834.8924,811.2455 462.67265,900.87197 251.52251,707.95341 110.71658,579.30524 96.489724,377.72338 246.53563,215.65723 377.81671,73.859143 666.56391,131.09375 783.05052,227.15039 c 162.5588,134.04848 10.74127,140.41261 -57.9178,121.67649 -97.0988,-26.49692 -7.62158,-10.12738 -44.6764,-32.46814 z"
       id="path10"
       sodipodi:nodetypes="cssssssssssscsssssssc" />
    <text
       xml:space="preserve"
       style="font-style:normal;font-variant:normal;font-weight:normal;font-stretch:normal;font-size:1124.93px;font-family:'Libertinus Serif Initials';-inkscape-font-specification:'Libertinus Serif Initials, Normal';font-variant-ligatures:normal;font-variant-caps:normal;font-variant-numeric:normal;font-variant-east-asian:normal;letter-spacing:51.4718px;writing-mode:lr-tb;direction:ltr;fill:#55ddff;fill-opacity:0.83;stroke-width:392.81"
       x="111.60247"
       y="794.25189"
       id="text1"
       transform="scale(0.88026465,1.136022)"><tspan
         sodipodi:role="line"
         id="tspan1"
         style="font-style:normal;font-variant:normal;font-weight:normal;font-stretch:normal;font-size:1124.93px;font-family:'Libertinus Serif Initials';-inkscape-font-specification:'Libertinus Serif Initials, Normal';font-variant-ligatures:normal;font-variant-caps:normal;font-variant-numeric:normal;font-variant-east-asian:normal;fill:#55ddff;fill-opacity:0.83;stroke-width:392.81"
         x="111.60247"
         y="794.25189">C</tspan></text>
  </g>
</svg>
